<?xml version="1.0" encoding="utf-8"?>
<!-- Generator: Adobe Illustrator 27.9.0, SVG Export Plug-In . SVG Version: 6.00 Build 0)  -->
<svg version="1.2" baseProfile="tiny" id="Layer_1" xmlns="http://www.w3.org/2000/svg" xmlns:xlink="http://www.w3.org/1999/xlink"
	 x="0px" y="0px" viewBox="0 0 526.134 206.226" overflow="visible" xml:space="preserve">
<g>
	<g>
		<path fill="#EF776A" d="M0,63.333h45.095v25.359c8.744-12.117,30.155-25.083,53.839-25.083c46.22,0,69.903,32.416,69.903,78.073
			v64.545h-45.095v-60.311c0-22.834-6.77-47.069-34.401-47.069c-30.706,0-44.521,28.744-44.521,45.933l0.275,61.447H0V63.333z"/>
		<path fill="#EF776A" d="M522.737,170.437v35.227l-159.795,0.562l0.551-0.562h-0.551l84.27-105.979h-80.896V63.333h159.818
			l-87.391,107.104H522.737z"/>
	</g>
	<rect x="223.654" fill="#EF776A" width="94.065" height="34.213"/>
	<path fill="#EF776A" d="M189.515,134.923c0-43.122,40.85-71.59,81.171-71.59c40.299,0,81.171,28.469,81.171,71.59
		s-40.873,71.303-81.171,71.303C230.364,206.226,189.515,178.044,189.515,134.923z M270.686,169.301
		c20.012,0,39.725-13.804,39.725-34.378c0-20.861-19.438-34.676-39.725-34.676c-20.861,0-40.023,14.102-40.023,34.676
		C230.663,155.21,249.825,169.301,270.686,169.301z"/>
</g>
</svg>
